<!DOCTYPE svg PUBLIC "-//W3C//DTD SVG 1.1//EN" "http://www.w3.org/Graphics/SVG/1.1/DTD/svg11.dtd">
<!-- Uploaded to: SVG Repo, www.svgrepo.com, Transformed by: SVG Repo Mixer Tools -->
<svg height="800px" width="800px" version="1.1" id="Layer_1" xmlns="http://www.w3.org/2000/svg" xmlns:xlink="http://www.w3.org/1999/xlink" viewBox="0 0 512 512" xml:space="preserve" fill="#f6911d" stroke="#f6911d">
<g id="SVGRepo_bgCarrier" stroke-width="0"/>
<g id="SVGRepo_tracerCarrier" stroke-linecap="round" stroke-linejoin="round"/>
<g id="SVGRepo_iconCarrier"> <path style="fill:#f6911d6911d;" d="M197.407,256.053c0-65.497,67.941-118.594,151.75-118.594s151.75,53.096,151.75,118.594 c0,55.34-48.503,101.826-114.098,114.912c-2.36,18.201-3.356,49.353,11.9,72.534c0,0-65.163-25.113-94.779-74.211 C242.209,354.248,197.407,309.24,197.407,256.053z"/> <path style="fill:#FFf;" d="M314.593,187.094c0-65.497-67.941-118.594-151.75-118.594S11.095,121.596,11.095,187.094 c0,55.34,48.503,101.825,114.098,114.912c2.36,18.201,3.356,49.352-11.9,72.534c0,0,65.163-25.113,94.779-74.211 C269.792,285.29,314.593,240.281,314.593,187.094z"/> <g> <path style="fill:#f6911d;" d="M100.773,175.996c-2.929,0-5.781,1.186-7.844,3.251c-2.064,2.063-3.251,4.925-3.251,7.844 c0,2.918,1.187,5.781,3.251,7.843c2.064,2.064,4.915,3.252,7.844,3.252c2.918,0,5.781-1.187,7.844-3.252 c2.064-2.063,3.251-4.925,3.251-7.843c0-2.919-1.187-5.782-3.251-7.844C106.553,177.182,103.691,175.996,100.773,175.996z"/> <path style="fill:#f6911d;" d="M378.348,310.375c-1.153,0.264-2.313,0.514-3.486,0.748c-6.009,1.201-9.906,7.047-8.705,13.055 c1.055,5.276,5.687,8.923,10.868,8.923c0.721,0,1.453-0.07,2.187-0.217c1.376-0.275,2.741-0.568,4.093-0.878 c5.973-1.369,9.705-7.322,8.336-13.293C390.273,312.738,384.325,309,378.348,310.375z"/> <path style="fill:#f6911d;" d="M432.547,202.792c-4.828-3.772-11.801-2.918-15.574,1.909c-3.773,4.829-2.918,11.802,1.909,15.574 c7.842,6.129,20.999,18.928,20.999,35.777c0,15.676-11.941,31.771-31.941,43.053c-5.338,3.011-7.223,9.778-4.213,15.115 c2.039,3.615,5.801,5.646,9.674,5.646c1.846,0,3.718-0.462,5.441-1.434c27.069-15.269,43.229-38.588,43.229-62.381 C462.071,229.789,443.573,211.41,432.547,202.792z"/> <path style="fill:#f6911d;" d="M162.839,175.996c-6.125,0-11.095,4.97-11.095,11.095c0,6.135,4.971,11.095,11.095,11.095 c6.136,0,11.106-4.961,11.106-11.095C173.946,180.966,168.975,175.996,162.839,175.996z"/> <path style="fill:#f6911d;" d="M224.917,175.996c-2.918,0-5.781,1.186-7.844,3.251c-2.064,2.063-3.251,4.925-3.251,7.844 c0,2.918,1.187,5.781,3.251,7.843c2.064,2.064,4.926,3.252,7.844,3.252c2.918,0,5.781-1.187,7.844-3.252 c2.064-2.063,3.251-4.925,3.251-7.843c0-2.919-1.187-5.782-3.251-7.844C230.698,177.182,227.835,175.996,224.917,175.996z"/> <path style="fill:#f6911d;" d="M512,256.053c0-35.166-17.299-68.053-48.709-92.601c-30.603-23.917-71.137-37.088-114.135-37.088 c-13.587,0-26.923,1.33-39.781,3.886c-8.032-13.136-18.909-25.217-32.396-35.758c-30.603-23.917-71.137-37.088-114.135-37.088 S79.312,70.576,48.709,94.493C17.299,119.041,0,151.926,0,187.094c0,57.383,46.88,107.462,114.991,124.017 c1.278,16.179,0.553,39.829-10.965,57.33c-2.651,4.028-2.397,9.307,0.629,13.06c2.151,2.67,5.353,4.135,8.642,4.135 c1.337,0,2.687-0.243,3.988-0.743c2.534-0.976,56.841-22.284,90.333-64.541c3.539,4.93,7.499,9.704,11.887,14.292 c19.853,20.76,46.535,36.017,77.386,44.296c32.106,49.151,95.094,73.86,97.828,74.914c1.3,0.5,2.651,0.743,3.988,0.743 c3.288-0.001,6.491-1.465,8.642-4.135c3.026-3.755,3.28-9.034,0.628-13.061c-11.518-17.499-12.244-41.15-10.965-57.329 C465.121,363.514,512,313.435,512,256.053z M205.446,289.55c-2.873,0.7-5.347,2.518-6.874,5.049 c-15.965,26.467-43.669,45.732-63.991,57.194c4.184-18.097,3.504-36.651,1.615-51.213c-0.612-4.719-4.165-8.523-8.832-9.454 C65.44,278.771,22.19,235.991,22.19,187.094c0-59.275,63.098-107.498,140.654-107.498s140.654,48.223,140.654,107.498 C303.498,234.083,264.093,275.259,205.446,289.55z M384.635,360.085c-4.667,0.931-8.22,4.735-8.832,9.454 c-1.888,14.561-2.566,33.118,1.615,51.212c-20.324-11.462-48.026-30.726-63.991-57.194c-1.527-2.531-4.001-4.349-6.874-5.049 c-35.854-8.737-64.499-27.528-81.359-51.546c26.584-8.72,49.648-22.815,67.302-41.277c21.714-22.709,33.193-49.884,33.193-78.592 c0-12.404-2.161-24.522-6.327-36.093c9.607-1.592,19.571-2.447,29.794-2.447c77.557,0,140.654,48.223,140.654,107.498 C489.81,304.949,446.56,347.729,384.635,360.085z"/> </g> </g>
</svg>