<svg width="24" height="25" viewBox="0 0 24 25" fill="none" xmlns="http://www.w3.org/2000/svg">
<path d="M11.95 18.5C12.3 18.5 12.596 18.379 12.838 18.137C13.08 17.895 13.2007 17.5993 13.2 17.25C13.1993 16.9007 13.0787 16.6047 12.838 16.362C12.5973 16.1193 12.3013 15.9987 11.95 16C11.5987 16.0013 11.303 16.1223 11.063 16.363C10.823 16.6037 10.702 16.8993 10.7 17.25C10.698 17.6007 10.819 17.8967 11.063 18.138C11.307 18.3793 11.6027 18.5 11.95 18.5ZM12 22.5C10.6167 22.5 9.31667 22.2373 8.1 21.712C6.88334 21.1867 5.825 20.4743 4.925 19.575C4.025 18.6757 3.31267 17.6173 2.788 16.4C2.26333 15.1827 2.00067 13.8827 2 12.5C1.99933 11.1173 2.262 9.81733 2.788 8.6C3.314 7.38267 4.02633 6.32433 4.925 5.425C5.82367 4.52567 6.882 3.81333 8.1 3.288C9.318 2.76267 10.618 2.5 12 2.5C13.382 2.5 14.682 2.76267 15.9 3.288C17.118 3.81333 18.1763 4.52567 19.075 5.425C19.9737 6.32433 20.6863 7.38267 21.213 8.6C21.7397 9.81733 22.002 11.1173 22 12.5C21.998 13.8827 21.7353 15.1827 21.212 16.4C20.6887 17.6173 19.9763 18.6757 19.075 19.575C18.1737 20.4743 17.1153 21.187 15.9 21.713C14.6847 22.239 13.3847 22.5013 12 22.5ZM12.1 8.2C12.5167 8.2 12.8793 8.33333 13.188 8.6C13.4967 8.86667 13.6507 9.2 13.65 9.6C13.65 9.96667 13.5377 10.2917 13.313 10.575C13.0883 10.8583 12.834 11.125 12.55 11.375C12.1667 11.7083 11.8293 12.075 11.538 12.475C11.2467 12.875 11.1007 13.325 11.1 13.825C11.1 14.0583 11.1877 14.2543 11.363 14.413C11.5383 14.5717 11.7423 14.6507 11.975 14.65C12.225 14.65 12.4377 14.5667 12.613 14.4C12.7883 14.2333 12.9007 14.025 12.95 13.775C13.0167 13.425 13.1667 13.1127 13.4 12.838C13.6333 12.5633 13.8833 12.3007 14.15 12.05C14.5333 11.6833 14.8627 11.2833 15.138 10.85C15.4133 10.4167 15.5507 9.93333 15.55 9.4C15.55 8.55 15.2043 7.85433 14.513 7.313C13.8217 6.77167 13.0173 6.50067 12.1 6.5C11.4667 6.5 10.8627 6.63333 10.288 6.9C9.71333 7.16667 9.27567 7.575 8.975 8.125C8.85834 8.325 8.821 8.53767 8.863 8.763C8.905 8.98833 9.01733 9.159 9.2 9.275C9.43333 9.40833 9.675 9.45 9.925 9.4C10.175 9.35 10.3833 9.20833 10.55 8.975C10.7333 8.725 10.9627 8.53333 11.238 8.4C11.5133 8.26667 11.8007 8.2 12.1 8.2Z" fill="#1F1F1F"/>
</svg>
