<?xml version="1.0" encoding="UTF-8"?>
<svg id="Layer_1" data-name="Layer 1" xmlns="http://www.w3.org/2000/svg" viewBox="0 0 32 16">
  <defs>
    <style>
      .cls-1 {
        fill: #006c68;
      }
    </style>
  </defs>
  <g>
    <path class="cls-1" d="M14.98,9.13c.09-2.87-3.27-4.56-5.55-2.78-2.5,1.94-1.16,5.86,1.99,6.08,1.36.09,2.94-.7,3.39-2.04l-.03-.06c-.93.22-2.24-.15-2.89-.85-.03-.03-.25-.3-.22-.32,1.09.17,2.24.3,3.32-.03ZM10.46,8.32c-.05.12-.03.35-.16.32,0-.22-.1-.41-.23-.57l-.64-.26c.59-.04.72-.19.87-.72.02-.07-.03-.08.09-.07,0,.21.09.42.23.58l.65.25c-.36.04-.65.12-.8.46Z"/>
    <path class="cls-1" d="M18.79,4.84c.63,0,1.23.1,1.79.29-.92-1.15-2.6-1.97-4.56-2.15l-.51-1.18c.28-.15.48-.44.48-.77,0-.48-.41-.88-.91-.88s-.91.39-.91.88c0,.33.19.62.47.77l-.52,1.22c-1.84.23-3.39,1.02-4.27,2.11.55-.18,1.14-.28,1.76-.28h1.13c.71-.37,1.56-.59,2.47-.59s1.76.22,2.47.59h1.1Z"/>
    <path class="cls-1" d="M5.02,8.52c-1.05-.23-2.6-.35-2.6-1.01,0-.49.61-.53.99-.53.28,0,.54.05.73.18.19.12.3.31.3.61h2.12c-.08-1.83-1.69-2.27-3.23-2.27C1.95,5.49.12,5.95.12,7.64c0,1.89,1.81,1.93,3.26,2.3.41.09,1.12.2,1.12.74s-.64.74-1.08.74c-.32,0-.64-.08-.85-.24-.23-.18-.38-.43-.38-.78H0c.07,1.96,1.77,2.52,3.43,2.52s3.37-.62,3.37-2.5c0-.58-.37-1.61-1.79-1.89Z"/>
    <polygon class="cls-1" points="29.11 8.07 31.68 5.42 29.01 5.42 26.92 7.76 26.92 2.78 24.62 2.78 24.62 12.44 26.92 12.44 26.92 10.19 27.51 9.61 29.23 12.44 32 12.44 29.11 8.07"/>
    <path class="cls-1" d="M22.79,9.13c.09-2.87-3.27-4.56-5.55-2.78-2.5,1.94-1.16,5.86,1.99,6.08,1.36.09,2.94-.7,3.39-2.04l-.03-.06c-.93.22-2.24-.15-2.89-.85-.03-.03-.25-.3-.22-.32,1.09.17,2.24.3,3.32-.03ZM18.75,8.32c-.05.12-.03.35-.16.32,0-.22-.1-.41-.23-.57l-.64-.26c.59-.04.72-.19.87-.72.02-.07-.03-.08.09-.07,0,.21.09.42.23.58l.65.25c-.36.04-.65.12-.8.46Z"/>
  </g>
  <g>
    <path class="cls-1" d="M17.17,14.84c-.08.43-.35.69-.7.69-.21,0-.33-.12-.37-.19h-.02s-.03.15-.03.15h-.42l.37-1.89h.42l-.12.65c.07-.07.22-.16.4-.16.37,0,.56.29.47.74ZM16.58,14.42c-.18,0-.33.15-.39.43-.05.25.02.38.18.38.18,0,.33-.15.39-.43.05-.25-.02-.38-.18-.38Z"/>
    <path class="cls-1" d="M17.95,15.53c-.18.35-.32.43-.59.43-.08,0-.16-.01-.24-.03l.05-.31c.11.02.21,0,.26-.08.06-.05.07-.13.06-.25l-.22-1.15h.42l.13.89h0l.43-.89h.43l-.73,1.39Z"/>
    <path class="cls-1" d="M19.72,13.61l.1,1.32h0l.62-1.32h.51l-.98,1.89h-.5l-.25-1.89h.5Z"/>
    <path class="cls-1" d="M22.23,14.33l-.08.39h-.82l-.07.39h.97l-.08.39h-1.45l.37-1.89h1.43l-.07.39h-.96l-.07.34h.82Z"/>
    <path class="cls-1" d="M22.72,13.61h.88c.42,0,.65.2.58.57-.05.24-.21.39-.45.44h-.03c.46.09.14.82.25.85v.02s-.47,0-.47,0c-.08-.08.21-.65-.2-.65h-.31l-.13.66h-.47l.37-1.89ZM23.03,14.45h.31c.19,0,.32-.08.35-.25.03-.15-.05-.2-.24-.2h-.33l-.09.45Z"/>
    <path class="cls-1" d="M24.65,15.1l-.2.39h-.48l1.05-1.89h.47l.31,1.89h-.47l-.04-.39h-.65ZM25.26,14.74l-.08-.7h0l-.35.7h.43Z"/>
    <path class="cls-1" d="M27.82,14.41l-.07.39h-.76l-.14.7h-.47l.37-1.89h1.4l-.07.39h-.93l-.08.41h.76Z"/>
    <path class="cls-1" d="M28.62,14.14l-.26,1.35h-.42l.26-1.35h.42ZM28.27,13.77c.02-.11.11-.16.22-.16.13,0,.22.08.2.21-.02.11-.11.16-.22.16-.13,0-.22-.07-.2-.21Z"/>
    <path class="cls-1" d="M29.33,13.61l-.37,1.89h-.42l.37-1.89h.42Z"/>
    <path class="cls-1" d="M30.13,15.07h.42c-.13.29-.36.46-.71.46-.46,0-.69-.33-.6-.79.08-.4.38-.65.79-.65.47,0,.66.35.56.82h-.97c-.04.21.1.3.24.3.16,0,.25-.08.26-.15ZM29.68,14.69h.55c.03-.21-.07-.3-.21-.3-.17,0-.3.11-.34.3Z"/>
    <path class="cls-1" d="M31.91,15.07c0,.33-.26.47-.62.47-.5,0-.64-.23-.64-.48h.39c-.01.13.08.19.23.19.13,0,.21-.05.21-.14s-.1-.1-.29-.16c-.23-.07-.42-.17-.42-.38,0-.29.26-.46.6-.46.47,0,.6.23.6.45h-.39c0-.11-.08-.16-.21-.16-.11,0-.18.03-.18.11,0,.08.06.1.24.15.24.08.46.18.46.42Z"/>
  </g>
</svg>